<mxfile host="Electron" agent="Mozilla/5.0 (Windows NT 10.0; Win64; x64) AppleWebKit/537.36 (KHTML, like Gecko) draw.io/24.7.17 Chrome/128.0.6613.36 Electron/32.0.1 Safari/537.36" version="24.7.17">
  <diagram name="Page-1" id="5Zvw-DGjrGqT7-AAHhEV">
    <mxGraphModel dx="1156" dy="989" grid="1" gridSize="10" guides="1" tooltips="1" connect="1" arrows="1" fold="1" page="1" pageScale="1" pageWidth="850" pageHeight="1100" math="0" shadow="0">
      <root>
        <mxCell id="0" />
        <mxCell id="1" parent="0" />
        <mxCell id="Ihod3XQhCvXHsrz0u6Dx-1" style="edgeStyle=orthogonalEdgeStyle;rounded=0;orthogonalLoop=1;jettySize=auto;html=1;exitX=0.5;exitY=1;exitDx=0;exitDy=0;entryX=0.5;entryY=0;entryDx=0;entryDy=0;strokeWidth=3;" edge="1" parent="1" source="Ihod3XQhCvXHsrz0u6Dx-2" target="Ihod3XQhCvXHsrz0u6Dx-4">
          <mxGeometry relative="1" as="geometry" />
        </mxCell>
        <mxCell id="Ihod3XQhCvXHsrz0u6Dx-2" value="&lt;font style=&quot;font-size: 17px;&quot;&gt;Start&lt;/font&gt;" style="ellipse;whiteSpace=wrap;html=1;" vertex="1" parent="1">
          <mxGeometry x="340" width="120" height="80" as="geometry" />
        </mxCell>
        <mxCell id="Ihod3XQhCvXHsrz0u6Dx-3" style="edgeStyle=orthogonalEdgeStyle;rounded=0;orthogonalLoop=1;jettySize=auto;html=1;exitX=0.5;exitY=1;exitDx=0;exitDy=0;entryX=0.5;entryY=0;entryDx=0;entryDy=0;fontSize=20;strokeWidth=3;" edge="1" parent="1" source="Ihod3XQhCvXHsrz0u6Dx-4" target="Ihod3XQhCvXHsrz0u6Dx-7">
          <mxGeometry relative="1" as="geometry">
            <mxPoint x="400" y="330" as="targetPoint" />
          </mxGeometry>
        </mxCell>
        <mxCell id="Ihod3XQhCvXHsrz0u6Dx-4" value="Connect to WiFi" style="rounded=0;whiteSpace=wrap;html=1;fontSize=17;" vertex="1" parent="1">
          <mxGeometry x="290" y="160" width="220" height="90" as="geometry" />
        </mxCell>
        <mxCell id="Ihod3XQhCvXHsrz0u6Dx-6" style="edgeStyle=orthogonalEdgeStyle;rounded=0;orthogonalLoop=1;jettySize=auto;html=1;exitX=0.5;exitY=1;exitDx=0;exitDy=0;entryX=0;entryY=0.5;entryDx=0;entryDy=0;strokeWidth=3;" edge="1" parent="1" source="Ihod3XQhCvXHsrz0u6Dx-7" target="Ihod3XQhCvXHsrz0u6Dx-7">
          <mxGeometry relative="1" as="geometry">
            <mxPoint x="400" y="1030" as="targetPoint" />
            <Array as="points">
              <mxPoint x="400" y="620" />
              <mxPoint x="240" y="620" />
              <mxPoint x="240" y="458" />
            </Array>
          </mxGeometry>
        </mxCell>
        <mxCell id="Ihod3XQhCvXHsrz0u6Dx-13" style="edgeStyle=orthogonalEdgeStyle;rounded=0;orthogonalLoop=1;jettySize=auto;html=1;exitX=1;exitY=0.5;exitDx=0;exitDy=0;entryX=0;entryY=0.5;entryDx=0;entryDy=0;strokeWidth=3;" edge="1" parent="1" source="Ihod3XQhCvXHsrz0u6Dx-7" target="Ihod3XQhCvXHsrz0u6Dx-12">
          <mxGeometry relative="1" as="geometry" />
        </mxCell>
        <mxCell id="Ihod3XQhCvXHsrz0u6Dx-7" value="&lt;span style=&quot;font-size: 15px;&quot;&gt;Packet availible on serial?&lt;/span&gt;" style="rhombus;whiteSpace=wrap;html=1;" vertex="1" parent="1">
          <mxGeometry x="295" y="353" width="210" height="210" as="geometry" />
        </mxCell>
        <mxCell id="Ihod3XQhCvXHsrz0u6Dx-10" value="Yes" style="text;html=1;align=center;verticalAlign=middle;resizable=0;points=[];autosize=1;strokeColor=none;fillColor=none;fontSize=19;" vertex="1" parent="1">
          <mxGeometry x="510" y="470" width="50" height="40" as="geometry" />
        </mxCell>
        <mxCell id="Ihod3XQhCvXHsrz0u6Dx-11" value="No" style="text;html=1;align=center;verticalAlign=middle;resizable=0;points=[];autosize=1;strokeColor=none;fillColor=none;fontSize=18;" vertex="1" parent="1">
          <mxGeometry x="340" y="570" width="50" height="40" as="geometry" />
        </mxCell>
        <mxCell id="Ihod3XQhCvXHsrz0u6Dx-15" style="edgeStyle=orthogonalEdgeStyle;rounded=0;orthogonalLoop=1;jettySize=auto;html=1;strokeWidth=4;" edge="1" parent="1" source="Ihod3XQhCvXHsrz0u6Dx-12">
          <mxGeometry relative="1" as="geometry">
            <mxPoint x="400" y="310" as="targetPoint" />
            <Array as="points">
              <mxPoint x="725" y="310" />
              <mxPoint x="401" y="310" />
            </Array>
          </mxGeometry>
        </mxCell>
        <mxCell id="Ihod3XQhCvXHsrz0u6Dx-12" value="&lt;font style=&quot;font-size: 16px;&quot;&gt;Get current time and append it to teh data from the LoRa module beofre posting it to the PHP page&lt;/font&gt;" style="rounded=0;whiteSpace=wrap;html=1;" vertex="1" parent="1">
          <mxGeometry x="580" y="413" width="290" height="90" as="geometry" />
        </mxCell>
      </root>
    </mxGraphModel>
  </diagram>
</mxfile>
